<svg width="1000" height="1000" viewBox="0 0 1000 1000" fill="none" xmlns="http://www.w3.org/2000/svg">
<circle cx="500" cy="500" r="500" fill="black"/>
<path fill-rule="evenodd" clip-rule="evenodd" d="M573.801 743.176L573.252 740.687L572.685 735.91L573.27 734.574L573.966 730.73L571.77 726.154L571.678 725.752L573.087 725.202L583.099 725.807L586.925 726.301L588.426 725.678L589.579 724.196L591.867 720.023L595.564 720.37L598.328 720.517L600.963 719.949L602.007 719.51L606.271 716.27L607.864 714.092L609.438 711.933L612.275 708.638L613.757 707.869L616.411 706.954L619.578 705.856L622.708 705.343L624.044 706.423L625.105 707.851L626.515 709.791L627.357 709.736L632.555 704.959L633.415 703.788L635.886 692.696L635.776 689.895L634.147 678.145L631.768 675.106L631.2 673.972L630.285 670.091L629.773 666.229L636.508 649.701L638.137 645.711L637.753 636.834L635.538 633.576L628.729 622.283L629.059 619.611L629.242 614.468L624.3 610.331L623.623 609.434L622.177 603.303L623.074 601.234L624.392 596.933L624.629 593.986L623.897 591.442L625.728 586.72L626.991 585.878L628.327 586.61L629.645 585.86L630.926 583.206L632.5 579.344L633.891 573.267L633.598 570.741L633.232 570.338L633.397 569.441L633.507 562.45L632.884 558.405L629.59 555.421L628.949 552.474L629.242 551.761L635.428 551.211L637.021 550.186L638.375 546.526L639.986 542.133L640.608 540.925L640.773 540.467L641.359 538.417L640.773 537.411L635.959 531.993L631.64 527.198L626.332 525.202L623.11 522.201L617.747 517.003L613.373 510.322L613.007 508.913L614.526 505.014L615.899 504.593L617.345 505.032L625.343 501.628L628.711 496.777L629.37 495.716L629.333 495.441L628.546 492.421L624.282 493.172L623.184 493.428L621.829 493.812L613.849 487.864L612.403 486.564L611.689 485.301L611.506 483.764L611.433 482.043L608.504 479.92L605.045 479.591L603.965 479.536L602.684 479.975L602.501 477.852L597.669 467.584L596.571 466.504L594.832 466.76L594.063 468.224L593.221 470.128L591.501 472.434L590.091 473.13L587.126 472.031L586.156 470.915L580.189 460.519L579.384 458.524L579.091 446.517V443.716L579.42 440.367L577.187 442.051L572.868 440.623L572.483 439.561L571.733 436.523L567.377 430.593L562.343 426.2L560.33 425.34L557.035 422.887L553.686 419.94L550.904 417.103L549.934 416.005L545.047 410.148L542.887 407L541.166 405.06L539.647 403.833L537.597 403.101L535.346 402.131L531.393 393.95L528.409 384.121L525.956 380.643L521.71 373.834L515.999 374.457L513.675 373.853L512.302 372.828L511.735 372.224L511.954 369.606L511.003 368.856L508.733 369.057L504.176 364.408L500.094 358.533L499.838 356.684L500.46 353.994L502.364 349.399L504.761 348.759L504.706 347.24L502.144 345.153L499.929 343.835L495.793 342.462L490.613 341.126L480.198 338.179L476.263 335.873L470.845 332.121L469.527 329.925L468.502 328.186L454.775 320.297L451.59 320.279L451.883 318.357L449.083 315.776L442.878 313.049L439.913 313.342L432.866 309.022L437.991 304.337L441.798 302.836L445.221 299.413L445.33 296.924L445.093 294.874L443.848 294.27L442.31 292.549L441.67 291.378L440.718 288.596L441.67 287.205L442.731 287.827L444.324 288.87L447.271 288.962L447.728 287.882L448.204 287.553L451.59 286.656L452.981 286.601L462.627 288.559L464.11 289.95L467.917 292.22L470.607 292.202L474.726 291.579L475.311 289.804L475.988 287.571L476.647 286.399L478.697 284.112L481.608 283.617L484.975 281.879L485.909 278.657L484.683 277.541L482.687 277.522L482.669 275.948L485.543 273.276L488.673 271.318L492.114 270.457L492.937 269.579L493.322 264.216L490.832 259.384L485.689 257.023L478.588 252.026L478.258 250.415L473.151 246.169L469.729 246.279L467.972 246.681L462.517 245.711L461.053 245.089L460.376 243.991L464.366 241.154L467.734 240.422L472.346 236.285L473.939 234.674L474.597 232.753L473.097 232.02L471.669 231.599L466.947 229.348L461.895 225.596L458.344 221.917L457.594 219.995L456.258 219.007L452.121 217.048L450.163 216.225L445.221 214.376L431.713 221.386L427.466 225.248L427.064 227.939L425.252 231.691L422.451 232.35L421.701 231.087L419.742 229.037L417.985 227.756L408.138 224.717L404.606 224.242L403.233 224.058L396.863 222.649L395.253 221.862L394.594 221.88L391.354 219.043L389.743 215.529L387.218 210.404L381.507 203.724L380.262 203.467L380.5 200.008L378.853 198.69L379.731 191.314V188.001L378.212 188.568L378.963 186.537L381.891 182.986L383.227 181.448L384.252 180.387L384.417 178.538L384.234 172.535L383.319 170.686L377.352 172.205L371.495 174.914L367.194 175.61L366.041 171.272L366.388 169.808L366.443 168.325L365.656 164.554L363.332 160.272L362.288 159.796L360.641 159.594L359.085 159.173L357.713 158.093L354.784 152.401L353.411 149.637L346.969 144.274L345.468 143.945L343.326 142.444L340.416 139.15L340.16 137.685L338.714 134.354L338 133.695L339.464 132.158L345.047 128.277L351.544 121.615L353.576 117.112L355.114 113.397L356.23 112.372H357.676L358.793 112.756L368.676 117.35L377.828 122.53L378.414 124.708L381.049 128.808L386.595 131.407L388.462 131.169L394.045 125.404L403.16 111.091L404.569 111.219L406.509 112.372L408.23 116.179L410.042 119.913L411.524 121.542L412.659 122.603L413.464 123.024L414.27 122.841L416.814 119.364L415.862 116.545L418.681 111.933L420.639 111.75L428.308 119.217L430.084 121.688L431.951 123.427L434.586 125.66L437.826 127.582L440.004 126.484L440.443 124.818L440.169 123.647L441.395 117.222L442.896 114.147L445.623 110.871L453.695 109.187L453.439 112.262L454.025 114.458L459.149 117.167H460.01L464.732 114.074L466.544 112.427L468.997 110.249L470.864 109.059L475.11 109.279L476.318 110.029L479.521 109.736L486.092 101.536L484.573 93.7757L489.112 89.1633L508.257 82.1165L513.748 81L515.963 83.4709L522.955 89.0168L524.273 90.1883L524.822 91.7623L525.023 93.1351L525.06 93.9221L525.499 95.8074L529.068 95.844L536.133 98.26L537.231 99.1386L539.812 101.884L542.063 104.373L548.305 102.927L549.073 102.085L549.586 100.401L553.009 99.9256L556.12 100.054L559.451 100.896L560.989 101.939L561.739 102.891L562.545 104.849L562.764 106.68L564.851 107.521L567.413 107.741L574.643 105.618L576.089 104.776L577.279 103.238L581.123 104.318L587.163 106.972L590.146 109.517L591.281 110.596L591.775 112.829L587.95 120.389L583.264 121.267L581.928 121.853L578.908 130.254L578.981 131.7L579.201 132.634L579.622 136.367L580.811 137.154L582.55 137.539H584.198L586.577 143.927L585.369 144.604L585.277 146.288L586.632 154.451L589.048 156.227L595.912 157.398L598.017 157.874L604.532 159.668L605.795 160.674L605.704 162.486L604.24 164.738L604.697 166.403L615.057 172.59L617.217 172.663L618.059 171.876L619.688 171.583L621.976 174.31L622.415 175.39L623.202 178.63L624.392 179.014L632.427 179.71L639.437 178.355L642.164 177.385L643.702 176.397L644.672 175.738L646.154 175.134L650.401 176.214L653.439 179.563L655.123 182.089L656.294 182.583L657.447 182.199L657.887 182.382L659.827 183.389L661.511 185.365L654.262 188.074L653.384 186.976L654.006 185.512L653.384 183.462L652.103 182.785L650.071 183.151L646.776 185.896L641.853 190.747L635.868 196.384L629.645 196.53L628.858 195.652L626.13 194.499L623.421 197.94L623.202 202.644L624.282 205.334L623.604 207.604L623.184 209.727L623.623 211.539L622.506 212.509L620.383 212.765L617.509 212.912L616.064 213.351L611.817 217.268L607.443 215.822L607.992 213.79L609.786 212.198L611.378 210.953L605.411 213.205L604.185 215.822L602.171 216.097L600.195 215.657L598.383 214.889L596.644 213.681L596.314 215.255L597.412 215.859L599.078 216.737L600.268 218.421L596.955 218.531L595.875 220.325L594.429 217.726L591.116 216.646L592.489 215.236L593.715 214.724L592.983 212.344L591.995 211.521L584.088 211.777L583.923 212.015L585.406 212.582L585.204 214.01L585.9 215.621L587.437 216.17L590.219 216.755L589.268 219.446L586.778 220.013L589.359 222.082L588.389 224.388L591.372 227.737L591.208 230.099L585.955 233.54L584.161 234.253L581.379 233.869L582.788 236.248L580.665 250.36L579.731 253.508L577.352 252.081L575.833 252.776L578.011 252.923L579.201 254.405L577.59 256.162L576.327 256.986L575.064 257.572L573.948 257.956L567.45 260.885L566.517 262.514L560.11 269.268L558.298 270.585L557.31 271.098L554.546 271.464L554.876 268.169L552.99 271.976L550.904 270.622L550.629 270.329H550.153L546.42 274.173L544.004 281.567L538.311 292.458L538.824 294.453L538.073 300.713L537.012 303.989L537.25 306.368L538.201 311.036L534.724 313.745L529.306 322.933L527.494 326.374L527.677 327.893L529.031 332.817L532.161 334.738L534.925 338.765L535.474 339.937L535.529 344.586L535.108 345.775L536.28 345.208L537.524 345.281L538.567 348.1L539.281 349.729L540.087 351.413L541.679 353.939L542.411 355.055L543.784 356.574L551.837 365.451L553.302 366.696L554.949 368.05L556.541 368.343L557.621 368.545L562.563 371.199L563.533 372.077L573.014 381.247L574.021 382.858L575.613 384.871L576.62 385.896L573.545 390.618L573.051 392.211L571.989 398.068L575.796 400.941L580.811 408.812L583.868 413.681L586.943 417.506L589.945 420.691L593.642 423.784L600.103 428.817L604.368 431.966L606.656 433.576L607.699 434.07L607.937 434.162L609.731 435.553L610.481 439.525L613.172 446.077L613.849 447.322L622.104 452.172L629.041 457.846L632.884 461.269L631.585 461.123L628.949 459.915L627.906 459.787L627.65 460.391L627.869 460.738L630.962 462.678L633.342 463.209L635.831 464.033L641.597 467.803L648.039 475.289L646.557 475.71L647.71 479.28L649.101 480.304L651.59 481.201L652.89 481L654.317 479.463L656.349 478.035L659.461 478.584L660.614 479.298L662.755 482.867L668.301 485.686L667.002 486.528L665.812 488.157L665.537 489.749L668.978 497.034L670.937 495.167L670.754 492.769L670.681 489.401L671.468 488.23L676.062 488.449L676.629 489.493L674.707 490.902L672.383 491.451L672.419 493.519L672.639 495.02L673.719 498.406L674.707 499.926L681.095 508.016L686.714 517.57L692.132 526.41L698.026 530.455L699.453 531.316L701.705 529.54L703.279 529.833L706.207 537.813L706.83 546.251L708.715 553.756L709.795 556.519L711.003 559.594L711.845 561.443L712.705 563.09L713.272 564.06L716.915 569.515L717.628 572.407L716.988 574.164L716.896 579.453L719.386 587.543L721.198 591.845L722.845 594.078L723.778 597.098L724.309 603.76L726.67 609.288L729.233 618.293L729.343 620.508L729.141 624.699L727.256 624.589L727.128 620.965L726.268 617.122L724.529 621.038L724.858 625.523L725.041 626.694L725.426 627.811L725.535 631.142L726.634 635.846L725.902 639.781L725.169 642.289L725.115 644.192L729.05 659.549L729.745 661.233L733.022 666.248L734.413 668.243L735.181 669.048L736.206 669.945L738 673.038L737.835 675.289L736.225 676.296L735.309 675.216L732.857 677.541L725.096 685.466L723.394 688.321L723.321 691.396L723.888 693.227L726.414 695.661L728.958 698.04L731.557 701.756L730.99 703.019L729.086 704.556L727.494 703.623L726.231 701.555L724.675 699.724L722.259 698.242L720.649 699.651L721.966 701.427L724.419 705.819L724.163 708.363L723.815 718.558L727.366 730.291L724.95 727.893L724.932 725.202L722.607 717.552L722.442 721.633L723.705 723.262L724.035 725.404L723.504 727.289L722.882 728.479L721.417 729.852L720.228 730.199L719.386 732.103L719.349 732.817L723.174 735.965L724.694 738.051L724.035 741.126L722.479 745.226L719.953 748.759L716.585 748.045L715.487 747.276L714.663 748.155L713.803 751.761L713.583 755.714L713.51 758.643L713.803 760.418L710.545 763.292L709.008 763.475L707.434 762.889L705.402 761.974L704.651 762.102L702.235 762.98L699.764 764.939L694.292 770.283L689.862 770.668L687.08 772.498L685.781 773.816L684.774 775.555L671.376 783.883L670.04 783.993L665.391 785.201L664.183 785.768L663.011 786.628L662.188 787.58L660.998 789.813L660.358 791.918L659.79 794.078L658.93 795.963L657.978 797.793L655.599 797.702L654.592 797.226L653.073 796.988L651.663 797.098L648.46 798.324L647.014 799.752L646.172 800.484L644.672 801.491L635.428 805.279L632.811 808.244L631.64 809.215L628.491 810.862L627.466 811.283L621.353 812.473L619.102 814.76L617.93 816.426L615.899 815.218L614.965 812.948L612.787 810.77L610.627 811.228L606.308 809.654L605.301 807.622L604.917 803.339L604.661 801.985L603.306 800.575L603.928 802.497L604.551 804.273L604.221 807.238L603.068 805.041L603.032 802.863L602.373 805.682L602.391 806.085L603.05 808.226L602.281 809.507L601.586 810.825L601.22 808.958L600.121 807.677L599.774 805.17L600.195 804.529L600.25 804.145L598.145 801.93L596.772 801.106L592.068 799.752L590.439 799.129L589.268 800.246L589.945 801.454L590.146 801.674L590.86 804.309L589.707 805.005L588.993 806.487L588.92 808.702L586.046 809.526L584.948 809.91L583.246 811.667L581.086 813.388L582.459 812.948L588.773 811.063L591.995 815.657L592.178 820.16L591.592 821.899L586.321 821.276L584.344 821.88L580.116 821.386L578.048 820.453L575.833 820.691L573.765 820.288L571.953 820.105L572.355 820.489L574.241 821.734L575.339 822.228L580.39 823.949L581.727 824.406L584.472 825.285L586.778 825.925L592.086 828.872L592.599 830.739L591.263 833.119L584.289 839.507L581.745 839.269L575.229 835.681L574.241 834.638L570.433 829.293L569.61 827.756L568.676 825.944L566.901 824.022L564.979 823.308L569.884 830.867L573.179 834.803L575.888 837.585L577.261 838.244L579.731 839.232L585.515 842.893L586.376 843.808L586.632 845.052L585.607 846.755L581.928 848.53L575.357 842.472L572.776 841.245L569.811 839.177L564.796 834.089L562.691 831.453L561.373 829.623L560.385 828.598L557.804 826.017L556.834 825.193L555.37 824.278L555.04 824.498L557.749 828.47L563.68 834.491L564.65 835.535L565.4 836.596L565.62 837.2L566.48 837.914L573.508 844.814L576.309 848.036L579.933 852.484L580.317 853.563L580.445 856.895L580.043 858.432L578.432 861.434L577.48 862.404L576.309 863.301L571.623 864.399L570.525 864.344L562.764 859.201L561.611 858.286L552.679 849.884L550.703 847.523L550.08 846.553L549.22 845.181L547.518 842.838L546.31 841.794L543.894 839.69L539.483 837.511L539.135 837.548L538.97 837.749L540.178 839.232L542.466 841.428L543.253 842.106L544.278 842.984L546.895 845.748L549.586 848.695L551.892 851.44L553.082 853.234L558.921 862.88L560.019 864.893L560.275 866.101L559.397 873.66L558.207 874.374L556.194 874.667L548.524 877.303L541.368 880.305L540.215 880.909L539.208 881.293L527.97 885.558L524.822 886.619L523.321 887.241L522.387 887.974L518.708 891.799L516.402 894.709L515.505 897.876L513.51 903.293L512.485 905.307L510.838 907.338L500.789 915.886L495.317 917.716L486.769 919.62L481.425 918.119L480.107 917.021L485.36 913.781L488.197 911.969L489.917 909.059L489.588 905.819L488.288 906.277L485.561 907.54L484.353 907.705L483.182 906.387L483.694 893.831L484.554 879.81L484.792 876.424L485.14 869.304L485.122 864.271L485.268 862.678L486.531 855.247L487.629 851.166L488.654 848.548L496.287 841.923L498.135 841.337L499.49 843.643L499.764 844.943L500.314 846.041L500.021 840.898L498.941 838.372L498.154 837.127L497.184 835.864L493.157 831.856L490.247 832.222L488.545 832.405L486.147 830.117L484.609 828.104L483.31 825.999L480.271 824.717L479.063 824.589L477.068 826.2L472.877 828.195L472.017 824.663L471.321 822.411L466.745 815.712L463.872 813.772H466.178L469.509 811.374L470.461 809.288L472.035 807.531L476.117 807.293L477.855 807.622L478.624 807.769L479.576 807.97L481.626 808.135L483.292 808.244L486 808.171L487.483 807.659L488.398 806.872L489.698 805.023L490.32 804.071L490.832 803.028L491.674 801.93L493.212 800.667L497.44 798.397L499.307 797.281L499.27 795.396L497.495 791.003L496.836 789.85L496.287 787.708L496.891 786.281L497.495 785.512L499.655 783.59L504.633 786.317L505.42 786.702L506.921 787.251L510.545 788.056L513.913 787.763L514.48 786.647L517.683 782.931L522.79 784.066L522.973 783.993L524.456 783.663L526.304 783.279L528.867 782.693L532.088 781.211L533.589 780.24L534.907 779.893L536.829 779.801L541.038 785.731L546.584 787.672L553.265 792.193L559.872 794.023L558.426 788.349L556.724 785.567L557.09 782.766L558.957 782.419L560.184 782.693L560.367 782.547L559.122 777.934L557.255 775.665L555.681 776.067L545.962 769.496L544.937 768.471L541.734 764.134L542.375 760.308L543.308 756.263L542.137 749.802L538.897 747.258L538.75 745.922L540.746 743.396L541.954 742.92L543.216 743.085L544.754 743.963L546.658 744.366L549.549 740.065L549.989 737.832L551.142 736.898L553.32 737.081L563.442 740.229L565.327 742.261L571.55 742.591L573.801 743.176Z" fill="white"/>
<path fill-rule="evenodd" clip-rule="evenodd" d="M629.15 197.592L631.988 200.264L636.38 200.685L636.161 201.344L635.337 202.15L632.903 204.163L631.31 204.511L630.78 205.664L628.675 207.933L625.435 210.038L624.099 210.276L623.897 208.391L627.668 199.642L629.15 197.592Z" fill="white"/>
<path fill-rule="evenodd" clip-rule="evenodd" d="M598.51 222.411L598.876 222.191L601.402 221.459L604.166 221.093L605.209 221.203L608.174 223.546L608.925 224.406L607.149 228.415L605.996 229.824L602.94 228.122L601.86 227.353L599.041 224.681L598.364 222.869L598.51 222.411Z" fill="white"/>
<path fill-rule="evenodd" clip-rule="evenodd" d="M591.464 800.118L593.954 802.534L594.924 802.991L595.546 803.486L595.638 804.62L594.521 805.243L595.326 807.457L596.406 809.214L596.022 811.063L596.278 811.887L595.711 812.784L595.601 814.687L594.759 814.943L593.88 814.797L591.757 812.765L591.117 812.051L590.348 811.026L590.037 810.441L589.872 809.709L589.726 806.066L590.092 805.535L591.629 805.151L591.574 804.126L591.3 803.119L591.263 802.332L590.549 801.161L589.854 800.356L591.464 800.118Z" fill="white"/>
<path fill-rule="evenodd" clip-rule="evenodd" d="M440.224 812.839L442.567 814.98L443.079 815.566L443.646 816.353L444.067 817.067L444.269 823.748L443.811 825.194L440.974 833.229L437.515 825.688L436.783 823.931L435.648 822.137L435.062 821.606L432.793 820.709L432.225 820.764L431.841 820.142L430.724 816.902L431.548 816.573L438.284 813.168L440.224 812.839Z" fill="white"/>
</svg>
